<?xml version="1.0" standalone="no"?>
<!DOCTYPE svg PUBLIC "-//W3C//DTD SVG 20010904//EN"
 "http://www.w3.org/TR/2001/REC-SVG-20010904/DTD/svg10.dtd">
<svg version="1.0" xmlns="http://www.w3.org/2000/svg"
 width="2000.000000pt" height="2000.000000pt" viewBox="0 0 2000.000000 2000.000000"
 preserveAspectRatio="xMidYMid meet">

<g transform="translate(0.000000,2000.000000) scale(0.100000,-0.100000)"
fill="#000000" stroke="none">
<path d="M16477 16729 c7 -7 15 -10 18 -7 3 3 -2 9 -12 12 -14 6 -15 5 -6 -5z"/>
<path d="M16308 16693 c6 -2 18 -2 25 0 6 3 1 5 -13 5 -14 0 -19 -2 -12 -5z"/>
<path d="M16988 16693 c7 -3 16 -2 19 1 4 3 -2 6 -13 5 -11 0 -14 -3 -6 -6z"/>
<path d="M17100 16660 c34 -11 60 -11 35 0 -11 5 -29 8 -40 8 -16 0 -15 -2 5
-8z"/>
<path d="M17240 16610 c0 -6 7 -10 15 -10 8 0 15 2 15 4 0 2 -7 6 -15 10 -8 3
-15 1 -15 -4z"/>
<path d="M17500 16486 c0 -2 9 -6 20 -9 11 -3 18 -1 14 4 -5 9 -34 13 -34 5z"/>
<path d="M17580 16446 c0 -2 7 -7 16 -10 8 -3 12 -2 9 4 -6 10 -25 14 -25 6z"/>
<path d="M17620 16416 c0 -2 7 -7 16 -10 8 -3 12 -2 9 4 -6 10 -25 14 -25 6z"/>
<path d="M17687 16369 c7 -7 15 -10 18 -7 3 3 -2 9 -12 12 -14 6 -15 5 -6 -5z"/>
<path d="M15709 16273 c-13 -16 -12 -17 4 -4 9 7 17 15 17 17 0 8 -8 3 -21
-13z"/>
<path d="M17900 16199 c8 -8 21 -21 29 -29 12 -12 11 -10 0 9 -9 14 -22 27
-30 29 -11 3 -11 2 1 -9z"/>
<path d="M16988 16053 c7 -3 16 -2 19 1 4 3 -2 6 -13 5 -11 0 -14 -3 -6 -6z"/>
<path d="M18045 16020 c3 -5 8 -10 11 -10 2 0 4 5 4 10 0 6 -5 10 -11 10 -5 0
-7 -4 -4 -10z"/>
<path d="M15545 15999 c-4 -6 -5 -12 -2 -15 2 -3 7 2 10 11 7 17 1 20 -8 4z"/>
<path d="M16436 15963 c-6 -14 -5 -15 5 -6 7 7 10 15 7 18 -3 3 -9 -2 -12 -12z"/>
<path d="M18080 15971 c0 -5 5 -13 10 -16 6 -3 10 -2 10 4 0 5 -4 13 -10 16
-5 3 -10 2 -10 -4z"/>
<path d="M17116 15061 c-4 -5 3 -7 14 -4 23 6 26 13 6 13 -8 0 -17 -4 -20 -9z"/>
<path d="M18051 14973 c-1 -6 -4 -20 -7 -30 -5 -17 -5 -17 6 0 6 10 9 23 6 30
-3 9 -5 9 -5 0z"/>
<path d="M18016 14905 c-9 -26 -7 -32 5 -12 6 10 9 21 6 23 -2 3 -7 -2 -11
-11z"/>
<path d="M17405 14430 c-3 -5 -1 -10 4 -10 6 0 11 5 11 10 0 6 -2 10 -4 10 -3
0 -8 -4 -11 -10z"/>
<path d="M3001 14384 c0 -11 3 -14 6 -6 3 7 2 16 -1 19 -3 4 -6 -2 -5 -13z"/>
<path d="M4100 14221 c-25 -9 -74 -34 -110 -55 -131 -77 -196 -91 -280 -62
-84 29 -182 47 -214 40 -37 -8 -110 -43 -103 -50 2 -3 23 5 46 17 49 25 110
27 196 4 83 -21 81 -27 -7 -19 -42 3 -88 4 -103 0 -40 -10 -224 -201 -251
-261 -26 -57 -43 -157 -44 -255 0 -46 -3 -61 -10 -50 -15 24 -12 6 8 -38 17
-38 19 -39 42 -26 31 17 67 17 111 3 45 -15 69 -37 86 -76 9 -24 20 -33 36
-33 44 0 173 42 247 81 121 62 194 131 300 280 l16 21 39 -27 c99 -67 242
-114 305 -100 27 6 28 4 34 -47 4 -29 7 -78 8 -108 2 -130 30 84 45 355 7 117
-10 190 -59 267 -88 139 -210 190 -338 139z m187 -11 c61 -27 126 -97 164
-176 30 -63 33 -78 35 -174 l3 -105 -9 77 c-22 189 -75 275 -207 335 -71 33
-162 29 -238 -9 -60 -31 -125 -58 -125 -53 0 7 175 100 210 111 54 18 121 16
167 -6z"/>
<path d="M15866 14165 c-3 -9 -6 -22 -5 -28 0 -7 5 -1 10 12 5 13 8 26 5 28
-2 2 -6 -3 -10 -12z"/>
<path d="M16720 14159 c0 -5 5 -7 10 -4 6 3 10 8 10 11 0 2 -4 4 -10 4 -5 0
-10 -5 -10 -11z"/>
<path d="M16600 14029 c0 -5 5 -7 10 -4 6 3 10 8 10 11 0 2 -4 4 -10 4 -5 0
-10 -5 -10 -11z"/>
<path d="M2620 13813 c-14 -2 -97 -15 -185 -29 -88 -13 -212 -36 -275 -50 -63
-14 -153 -34 -200 -44 -215 -46 -612 -193 -773 -288 -170 -99 -275 -219 -334
-383 -23 -63 -27 -95 -31 -214 -4 -126 -1 -150 22 -243 35 -136 90 -271 153
-370 89 -139 222 -272 383 -383 82 -56 427 -229 458 -229 4 0 26 -9 48 -19 91
-44 395 -124 517 -137 l67 -7 0 -41 c0 -22 -7 -131 -15 -241 -30 -400 -36
-482 -40 -610 -3 -71 -18 -344 -35 -605 -16 -261 -30 -497 -32 -525 -2 -48 -1
-50 25 -53 15 -2 25 -7 22 -11 -2 -5 7 -6 20 -3 14 2 143 -3 288 -12 585 -37
730 -46 902 -55 99 -6 266 -15 370 -21 297 -17 702 -30 914 -30 l194 0 -6 213
c-4 116 -20 365 -36 552 -16 187 -27 343 -25 347 4 6 -9 272 -21 428 l-6 75
43 -50 c188 -219 379 -355 612 -435 251 -87 525 -92 765 -14 256 84 501 272
659 509 39 58 40 60 25 90 -62 119 -171 249 -270 323 -112 82 -158 98 -192 68
-32 -28 -188 -104 -261 -126 -188 -58 -370 -25 -560 101 -95 62 -163 138 -279
310 -86 128 -193 278 -316 447 -157 215 -341 387 -500 469 -155 80 -308 112
-543 116 l-142 2 0 -35 c-1 -75 -74 -181 -149 -215 l-40 -18 -3 -404 -3 -405
-37 -34 c-30 -27 -46 -34 -78 -34 l-40 0 0 435 0 435 -36 15 c-84 35 -146 107
-167 196 l-12 51 -60 -5 c-33 -3 -154 -12 -270 -22 -152 -12 -273 -16 -440
-12 -321 7 -417 32 -476 124 -56 90 -33 149 101 253 100 77 360 195 585 266
50 16 92 29 93 30 4 2 -23 216 -48 394 -5 36 -12 89 -16 118 l-6 52 -141 -1
c-78 -1 -153 -3 -167 -6z m-1360 -589 c0 -4 -27 -35 -60 -71 -113 -120 -170
-258 -171 -411 -1 -139 28 -234 109 -356 57 -86 57 -86 40 -86 -30 1 -107 127
-143 234 -74 221 -18 465 148 641 45 48 77 68 77 49z m4181 -2528 c86 -76 213
-146 324 -178 66 -19 104 -23 215 -23 154 0 239 19 359 80 62 31 81 34 81 15
0 -11 -148 -75 -215 -93 -282 -77 -583 -4 -798 193 -55 50 -68 70 -47 70 5 0
42 -29 81 -64z"/>
<path d="M16390 13790 c8 -5 20 -10 25 -10 6 0 3 5 -5 10 -8 5 -19 10 -25 10
-5 0 -3 -5 5 -10z"/>
<path d="M15630 13670 c0 -5 5 -10 10 -10 6 0 10 5 10 10 0 6 -4 10 -10 10 -5
0 -10 -4 -10 -10z"/>
<path d="M4303 13565 c-11 -8 -24 -27 -27 -41 -20 -80 78 -132 112 -61 31 65
-31 140 -85 102z"/>
<path d="M3936 13508 c-34 -49 -5 -128 46 -128 29 0 58 36 58 73 0 65 -71 102
-104 55z"/>
<path d="M16060 13496 c0 -2 7 -7 16 -10 8 -3 12 -2 9 4 -6 10 -25 14 -25 6z"/>
<path d="M16160 13456 c0 -2 7 -7 16 -10 8 -3 12 -2 9 4 -6 10 -25 14 -25 6z"/>
<path d="M4160 13433 c0 -9 11 -31 25 -49 32 -41 31 -46 -5 -67 -16 -10 -30
-22 -30 -28 0 -14 29 -11 61 8 38 23 38 57 -2 111 -32 44 -49 53 -49 25z"/>
<path d="M16240 13420 c0 -6 7 -10 15 -10 8 0 15 2 15 4 0 2 -7 6 -15 10 -8 3
-15 1 -15 -4z"/>
<path d="M3264 13379 c-7 -13 13 -29 37 -29 27 0 30 -13 9 -35 -25 -26 -31
-70 -10 -70 8 0 16 10 18 23 4 24 32 44 49 34 15 -10 33 -48 33 -71 0 -12 7
-21 15 -21 23 0 19 62 -7 100 -13 18 -34 41 -48 51 -32 22 -87 32 -96 18z"/>
<path d="M15416 13145 c-9 -26 -7 -32 5 -12 6 10 9 21 6 23 -2 3 -7 -2 -11
-11z"/>
<path d="M16256 13125 c-9 -26 -7 -32 5 -12 6 10 9 21 6 23 -2 3 -7 -2 -11
-11z"/>
<path d="M3333 13102 c53 -301 53 -301 111 -286 l26 6 0 147 0 147 -37 -1
c-21 0 -53 3 -72 7 -32 8 -33 7 -28 -20z"/>
<path d="M15418 12943 c7 -3 16 -2 19 1 4 3 -2 6 -13 5 -11 0 -14 -3 -6 -6z"/>
<path d="M16127 12811 c-4 -17 -3 -21 5 -13 5 5 8 16 6 23 -3 8 -7 3 -11 -10z"/>
<path d="M14495 12090 c-88 -15 -152 -28 -143 -29 9 0 89 11 178 25 89 14 163
24 165 22 1 -1 24 -138 50 -303 25 -165 51 -315 57 -333 7 -22 21 -38 42 -49
30 -14 41 -14 117 1 62 11 68 13 24 8 -100 -11 -134 -8 -156 14 -17 18 -29 73
-70 334 -27 172 -48 314 -46 316 2 2 75 -47 163 -108 87 -61 209 -146 269
-188 192 -134 268 -187 329 -231 l59 -43 -29 -7 c-16 -4 -111 -20 -212 -35
-101 -16 -178 -30 -173 -32 6 -2 104 11 217 29 144 23 208 29 212 21 4 -6 21
-97 37 -204 16 -106 31 -186 33 -177 2 14 -56 401 -61 405 -1 1 -94 66 -207
144 -113 79 -227 159 -255 179 -344 242 -388 271 -413 270 -15 -1 -99 -14
-187 -29z"/>
<path d="M13860 11992 c-228 -37 -408 -68 -400 -70 13 -2 814 121 860 132 8 2
2 4 -15 4 -16 0 -217 -30 -445 -66z"/>
<path d="M7092 11993 c14 -16 28 -35 31 -44 4 -14 -21 -157 -52 -293 -11 -46
-9 -67 5 -53 9 9 63 288 64 328 0 37 -36 89 -61 89 -7 0 -1 -12 13 -27z"/>
<path d="M7536 11927 c-4 -17 -53 -60 -156 -137 -129 -96 -167 -130 -145 -130
3 0 25 15 49 33 23 17 93 69 154 115 107 80 135 113 114 134 -6 6 -12 1 -16
-15z"/>
<path d="M13350 11910 c-27 -6 -29 -8 -10 -8 14 -1 43 3 65 7 33 7 35 9 10 9
-16 -1 -46 -4 -65 -8z"/>
<path d="M13273 11893 c9 -2 23 -2 30 0 6 3 -1 5 -18 5 -16 0 -22 -2 -12 -5z"/>
<path d="M13213 11883 c9 -2 23 -2 30 0 6 3 -1 5 -18 5 -16 0 -22 -2 -12 -5z"/>
<path d="M13143 11873 c9 -2 25 -2 35 0 9 3 1 5 -18 5 -19 0 -27 -2 -17 -5z"/>
<path d="M13083 11863 c9 -2 23 -2 30 0 6 3 -1 5 -18 5 -16 0 -22 -2 -12 -5z"/>
<path d="M12970 11850 c-27 -6 -29 -8 -10 -8 14 -1 43 3 65 7 33 7 35 9 10 9
-16 -1 -46 -4 -65 -8z"/>
<path d="M12893 11833 c9 -2 23 -2 30 0 6 3 -1 5 -18 5 -16 0 -22 -2 -12 -5z"/>
<path d="M12823 11823 c9 -2 25 -2 35 0 9 3 1 5 -18 5 -19 0 -27 -2 -17 -5z"/>
<path d="M12763 11813 c9 -2 23 -2 30 0 6 3 -1 5 -18 5 -16 0 -22 -2 -12 -5z"/>
<path d="M12682 11790 c-49 -30 -66 -80 -55 -155 l10 -60 -1 77 c-1 68 2 79
24 103 14 15 39 34 55 41 17 7 23 13 15 14 -8 0 -30 -9 -48 -20z"/>
<path d="M7695 11775 c-47 -22 -225 -105 -283 -131 -29 -13 -51 -28 -47 -33 3
-5 71 21 153 58 201 93 222 103 222 113 0 11 -10 10 -45 -7z"/>
<path d="M7690 11616 c-41 -18 -113 -51 -160 -73 -47 -22 -95 -43 -107 -47
-23 -7 -32 -26 -13 -26 9 0 359 157 368 165 2 2 -1 5 -5 8 -5 3 -42 -9 -83
-27z"/>
<path d="M12642 11550 c-1 -14 3 -43 7 -65 6 -26 9 -31 9 -15 1 14 -3 43 -7
65 -6 26 -9 31 -9 15z"/>
<path d="M15063 11443 c9 -2 23 -2 30 0 6 3 -1 5 -18 5 -16 0 -22 -2 -12 -5z"/>
<path d="M12662 11420 c-1 -14 5 -56 12 -95 8 -38 14 -59 14 -45 1 14 -5 57
-12 95 -8 39 -14 59 -14 45z"/>
<path d="M12692 11225 c0 -16 2 -22 5 -12 2 9 2 23 0 30 -3 6 -5 -1 -5 -18z"/>
<path d="M12702 11160 c0 -19 2 -27 5 -17 2 9 2 25 0 35 -3 9 -5 1 -5 -18z"/>
<path d="M12712 11095 c0 -16 2 -22 5 -12 2 9 2 23 0 30 -3 6 -5 -1 -5 -18z"/>
<path d="M15622 11080 c-1 -14 7 -70 18 -125 10 -55 18 -89 18 -75 1 14 -7 70
-18 125 -10 55 -18 89 -18 75z"/>
<path d="M12722 11040 c0 -14 10 -86 23 -160 12 -74 23 -124 23 -110 1 14 -9
86 -22 160 -13 74 -24 124 -24 110z"/>
<path d="M15662 10830 c-1 -14 3 -43 7 -65 6 -26 9 -31 9 -15 1 14 -3 43 -7
65 -6 26 -9 31 -9 15z"/>
<path d="M12772 10715 c0 -16 2 -22 5 -12 2 9 2 23 0 30 -3 6 -5 -1 -5 -18z"/>
<path d="M15682 10700 c-1 -14 7 -70 18 -125 10 -55 18 -89 18 -75 1 14 -7 70
-18 125 -10 55 -18 89 -18 75z"/>
<path d="M12782 10660 c-1 -14 3 -43 7 -65 6 -26 9 -31 9 -15 1 14 -3 43 -7
65 -6 26 -9 31 -9 15z"/>
<path d="M12802 10525 c0 -16 4 -43 8 -60 11 -42 11 -1 1 50 -7 34 -9 35 -9
10z"/>
<path d="M15085 10468 c-22 -29 -77 -105 -123 -168 -46 -63 -89 -122 -95 -130
-7 -9 -32 -42 -56 -75 -24 -33 -45 -61 -47 -63 -1 -2 -148 36 -325 84 l-324
86 -140 -145 c-77 -80 -147 -147 -155 -150 -10 -4 -8 -6 6 -6 14 -1 47 27 100
86 43 48 104 114 134 146 l56 59 322 -87 c177 -47 326 -84 331 -80 6 3 87 112
182 243 95 130 173 238 174 240 2 2 184 -107 528 -317 66 -40 121 -71 123 -68
2 2 -9 82 -25 178 -16 96 -29 165 -30 154 -1 -19 33 -246 44 -294 5 -18 3 -22
-9 -18 -9 4 -116 68 -238 143 -247 152 -384 234 -390 234 -2 0 -21 -24 -43
-52z"/>
<path d="M12821 10399 c1 -19 5 -47 10 -64 5 -20 6 -9 2 30 -6 66 -14 88 -12
34z"/>
<path d="M15060 10278 c-196 -268 -291 -393 -304 -396 -8 -2 -109 22 -226 53
-116 31 -213 55 -216 53 -3 -4 387 -110 438 -120 16 -3 85 85 303 385 39 53
73 97 77 97 4 0 55 -30 114 -66 136 -84 262 -161 432 -264 50 -30 93 -62 95
-70 4 -12 5 -12 6 1 1 17 -57 56 -294 199 -66 39 -163 98 -215 131 -161 100
-135 101 -210 -3z"/>
<path d="M12842 10280 c-1 -14 3 -43 7 -65 6 -26 9 -31 9 -15 1 14 -3 43 -7
65 -6 26 -9 31 -9 15z"/>
<path d="M12862 10150 c-1 -14 3 -43 7 -65 6 -26 9 -31 9 -15 1 14 -3 43 -7
65 -6 26 -9 31 -9 15z"/>
<path d="M12882 10015 c0 -16 2 -22 5 -12 2 9 2 23 0 30 -3 6 -5 -1 -5 -18z"/>
<path d="M14074 10006 c-16 -18 -76 -82 -134 -143 l-105 -109 -100 18 c-55 10
-107 17 -115 15 -8 -1 37 -12 100 -23 l115 -21 80 81 c44 44 107 110 139 145
58 61 60 63 100 57 28 -3 35 -2 21 4 -41 18 -72 11 -101 -24z"/>
<path d="M14215 10011 c11 -4 36 -11 55 -15 24 -4 29 -3 15 3 -11 4 -36 11
-55 15 -24 4 -29 3 -15 -3z"/>
<path d="M13110 9915 c-96 -52 -178 -95 -182 -95 -3 0 -9 8 -11 18 -3 10 -5 6
-6 -11 l-1 -27 83 41 c45 23 130 68 190 101 92 50 113 58 145 54 29 -5 32 -4
12 3 -14 5 -32 9 -40 10 -8 0 -94 -42 -190 -94z"/>
<path d="M13383 9983 c9 -2 23 -2 30 0 6 3 -1 5 -18 5 -16 0 -22 -2 -12 -5z"/>
<path d="M12892 9960 c-1 -14 3 -43 7 -65 6 -26 9 -31 9 -15 1 14 -3 43 -7 65
-6 26 -9 31 -9 15z"/>
<path d="M13535 9955 c61 -13 121 -23 135 -23 14 0 -27 11 -90 23 -63 13 -124
23 -135 23 -11 0 30 -11 90 -23z"/>
<path d="M13725 9920 c17 -4 41 -8 55 -8 22 0 22 1 -5 8 -16 4 -41 8 -55 8
-22 0 -22 -1 5 -8z"/>
<path d="M15782 9910 c-1 -14 3 -43 7 -65 6 -26 9 -31 9 -15 1 14 -3 43 -7 65
-6 26 -9 31 -9 15z"/>
<path d="M13101 9755 c-95 -51 -178 -98 -184 -104 -19 -19 7 -12 33 9 14 11
27 20 30 20 3 0 72 36 153 79 81 44 160 82 175 84 26 4 26 4 -3 5 -20 1 -87
-30 -204 -93z"/>
<path d="M13425 9820 c112 -23 182 -33 175 -27 -6 6 -234 47 -252 46 -7 -1 28
-9 77 -19z"/>
<path d="M15802 9775 c0 -16 2 -22 5 -12 2 9 2 23 0 30 -3 6 -5 -1 -5 -18z"/>
<path d="M15812 9720 c-1 -14 3 -43 7 -65 6 -26 9 -31 9 -15 1 14 -3 43 -7 65
-6 26 -9 31 -9 15z"/>
<path d="M12922 9605 c0 -16 2 -22 5 -12 2 9 2 23 0 30 -3 6 -5 -1 -5 -18z"/>
<path d="M15832 9590 c-1 -14 5 -56 13 -95 l14 -70 -5 60 c-6 72 -22 144 -22
105z"/>
<path d="M12932 9545 c0 -16 2 -22 5 -12 2 9 2 23 0 30 -3 6 -5 -1 -5 -18z"/>
<path d="M12942 9480 c0 -19 2 -27 5 -17 2 9 2 25 0 35 -3 9 -5 1 -5 -18z"/>
<path d="M12952 9415 c0 -16 2 -22 5 -12 2 9 2 23 0 30 -3 6 -5 -1 -5 -18z"/>
<path d="M15862 9400 c-1 -14 7 -70 18 -125 10 -55 18 -89 18 -75 1 14 -7 70
-18 125 -10 55 -18 89 -18 75z"/>
<path d="M12962 9360 c-1 -14 5 -56 12 -95 8 -38 14 -59 14 -45 1 14 -5 57
-12 95 -8 39 -14 59 -14 45z"/>
<path d="M12991 9159 c1 -19 5 -47 10 -64 5 -20 6 -9 2 30 -6 66 -14 88 -12
34z"/>
<path d="M15902 9145 c0 -16 2 -22 5 -12 2 9 2 23 0 30 -3 6 -5 -1 -5 -18z"/>
<path d="M15912 9090 c0 -14 2 -19 5 -12 2 6 2 18 0 25 -3 6 -5 1 -5 -13z"/>
<path d="M13012 9040 c-1 -14 5 -56 12 -95 8 -38 14 -59 14 -45 1 14 -5 57
-12 95 -8 39 -14 59 -14 45z"/>
<path d="M13042 8845 c0 -16 2 -22 5 -12 2 9 2 23 0 30 -3 6 -5 -1 -5 -18z"/>
<path d="M5051 8844 c0 -11 3 -14 6 -6 3 7 2 16 -1 19 -3 4 -6 -2 -5 -13z"/>
<path d="M15360 8850 c0 -5 7 -7 15 -4 8 4 15 8 15 10 0 2 -7 4 -15 4 -8 0
-15 -4 -15 -10z"/>
<path d="M13052 8785 c0 -16 2 -22 5 -12 2 9 2 23 0 30 -3 6 -5 -1 -5 -18z"/>
<path d="M13062 8720 c-1 -14 5 -56 12 -95 8 -38 14 -59 14 -45 1 14 -5 57
-12 95 -8 39 -14 59 -14 45z"/>
<path d="M4017 8632 c-7 -11 -50 -425 -77 -752 -5 -63 -14 -160 -20 -215 -6
-55 -19 -206 -30 -335 -11 -129 -22 -242 -25 -250 -2 -8 -7 -58 -10 -110 -4
-52 -11 -126 -15 -165 -5 -38 -12 -115 -15 -169 -4 -55 -11 -110 -16 -123 -5
-14 -7 -28 -4 -32 2 -4 -7 -129 -20 -277 -27 -293 -29 -334 -17 -334 8 0 17
88 92 895 22 242 43 460 47 485 l6 45 13 -50 c30 -117 155 -585 173 -645 24
-82 114 -427 140 -540 20 -85 35 -357 71 -1320 5 -146 12 -326 15 -400 18
-447 25 -650 25 -767 0 -72 4 -134 8 -137 21 -13 238 -16 626 -9 l420 8 17 90
c10 50 18 96 18 103 1 9 -74 12 -343 12 l-344 0 -6 138 c-4 75 -13 358 -21
627 -8 270 -19 654 -25 855 -6 201 -15 478 -19 615 -6 197 -11 257 -23 285 -9
19 -22 53 -28 75 -7 22 -16 48 -21 57 -5 10 -9 23 -9 30 0 7 -7 27 -16 43 -9
17 -22 50 -29 75 -16 57 -33 102 -62 167 -13 28 -23 54 -23 58 0 12 -92 240
-101 249 -5 6 -9 18 -9 28 0 10 -9 37 -19 61 -10 23 -38 92 -61 152 -23 61
-59 152 -81 203 -21 51 -39 96 -39 101 0 5 -21 57 -46 117 -25 60 -53 129 -64
154 -10 25 -32 79 -49 120 l-31 75 20 210 c42 434 47 529 27 497z"/>
<path d="M4051 8624 c0 -11 3 -14 6 -6 3 7 2 16 -1 19 -3 4 -6 -2 -5 -13z"/>
<path d="M15981 8624 c0 -11 3 -14 6 -6 3 7 2 16 -1 19 -3 4 -6 -2 -5 -13z"/>
<path d="M5132 8580 c0 -14 2 -19 5 -12 2 6 2 18 0 25 -3 6 -5 1 -5 -13z"/>
<path d="M15992 8570 c0 -14 2 -19 5 -12 2 6 2 18 0 25 -3 6 -5 1 -5 -13z"/>
<path d="M13092 8525 c0 -16 2 -22 5 -12 2 9 2 23 0 30 -3 6 -5 -1 -5 -18z"/>
<path d="M16002 8505 c0 -16 2 -22 5 -12 2 9 2 23 0 30 -3 6 -5 -1 -5 -18z"/>
<path d="M5172 8480 c0 -14 2 -19 5 -12 2 6 2 18 0 25 -3 6 -5 1 -5 -13z"/>
<path d="M13102 8470 c-1 -14 3 -43 7 -65 6 -26 9 -31 9 -15 1 14 -3 43 -7 65
-6 26 -9 31 -9 15z"/>
<path d="M16012 8440 c0 -14 2 -19 5 -12 2 6 2 18 0 25 -3 6 -5 1 -5 -13z"/>
<path d="M13122 8335 c0 -16 2 -22 5 -12 2 9 2 23 0 30 -3 6 -5 -1 -5 -18z"/>
<path d="M15996 8323 c-6 -14 -5 -15 5 -6 7 7 10 15 7 18 -3 3 -9 -2 -12 -12z"/>
<path d="M13132 8280 c-1 -14 3 -43 7 -65 6 -26 9 -31 9 -15 1 14 -3 43 -7 65
-6 26 -9 31 -9 15z"/>
<path d="M15908 8263 c7 -3 16 -2 19 1 4 3 -2 6 -13 5 -11 0 -14 -3 -6 -6z"/>
<path d="M15853 8253 c9 -2 23 -2 30 0 6 3 -1 5 -18 5 -16 0 -22 -2 -12 -5z"/>
<path d="M15788 8243 c6 -2 18 -2 25 0 6 3 1 5 -13 5 -14 0 -19 -2 -12 -5z"/>
<path d="M15723 8233 c9 -2 23 -2 30 0 6 3 -1 5 -18 5 -16 0 -22 -2 -12 -5z"/>
<path d="M15658 8223 c6 -2 18 -2 25 0 6 3 1 5 -13 5 -14 0 -19 -2 -12 -5z"/>
<path d="M15598 8213 c6 -2 18 -2 25 0 6 3 1 5 -13 5 -14 0 -19 -2 -12 -5z"/>
<path d="M15528 8203 c6 -2 18 -2 25 0 6 3 1 5 -13 5 -14 0 -19 -2 -12 -5z"/>
<path d="M15468 8193 c6 -2 18 -2 25 0 6 3 1 5 -13 5 -14 0 -19 -2 -12 -5z"/>
<path d="M15408 8183 c6 -2 18 -2 25 0 6 3 1 5 -13 5 -14 0 -19 -2 -12 -5z"/>
<path d="M15338 8173 c6 -2 18 -2 25 0 6 3 1 5 -13 5 -14 0 -19 -2 -12 -5z"/>
<path d="M13152 8155 c-1 -11 5 -54 13 -95 13 -73 14 -74 9 -15 -6 64 -22 143
-22 110z"/>
<path d="M15278 8163 c6 -2 18 -2 25 0 6 3 1 5 -13 5 -14 0 -19 -2 -12 -5z"/>
<path d="M15213 8153 c9 -2 23 -2 30 0 6 3 -1 5 -18 5 -16 0 -22 -2 -12 -5z"/>
<path d="M15148 8143 c6 -2 18 -2 25 0 6 3 1 5 -13 5 -14 0 -19 -2 -12 -5z"/>
<path d="M15088 8133 c6 -2 18 -2 25 0 6 3 1 5 -13 5 -14 0 -19 -2 -12 -5z"/>
<path d="M15018 8123 c6 -2 18 -2 25 0 6 3 1 5 -13 5 -14 0 -19 -2 -12 -5z"/>
<path d="M14958 8113 c6 -2 18 -2 25 0 6 3 1 5 -13 5 -14 0 -19 -2 -12 -5z"/>
<path d="M14893 8103 c9 -2 23 -2 30 0 6 3 -1 5 -18 5 -16 0 -22 -2 -12 -5z"/>
<path d="M14833 8093 c9 -2 23 -2 30 0 6 3 -1 5 -18 5 -16 0 -22 -2 -12 -5z"/>
<path d="M14356 8073 c-6 -14 -5 -15 5 -6 7 7 10 15 7 18 -3 3 -9 -2 -12 -12z"/>
<path d="M14778 8083 c7 -3 16 -2 19 1 4 3 -2 6 -13 5 -11 0 -14 -3 -6 -6z"/>
<path d="M14708 8073 c6 -2 18 -2 25 0 6 3 1 5 -13 5 -14 0 -19 -2 -12 -5z"/>
<path d="M13181 7966 c-3 -50 72 -116 131 -116 33 1 427 68 403 69 -11 1 -106
-13 -212 -30 -105 -17 -203 -29 -217 -25 -37 9 -85 54 -95 89 -5 18 -10 24
-10 13z"/>
<path d="M14068 7973 c12 -2 30 -2 40 0 9 3 -1 5 -23 4 -22 0 -30 -2 -17 -4z"/>
<path d="M13895 7950 c-55 -9 -92 -18 -82 -19 18 -1 205 27 222 34 24 9 -48 1
-140 -15z"/>
<path d="M13753 7923 c9 -2 23 -2 30 0 6 3 -1 5 -18 5 -16 0 -22 -2 -12 -5z"/>
<path d="M2291 7734 c0 -11 3 -14 6 -6 3 7 2 16 -1 19 -3 4 -6 -2 -5 -13z"/>
<path d="M5411 7724 c0 -11 3 -14 6 -6 3 7 2 16 -1 19 -3 4 -6 -2 -5 -13z"/>
<path d="M5450 7590 c0 -11 4 -20 9 -20 5 0 7 9 4 20 -3 11 -7 20 -9 20 -2 0
-4 -9 -4 -20z"/>
<path d="M5544 7344 c3 -9 6 -18 6 -20 0 -2 1870 -4 4155 -4 4148 0 4155 0
4155 20 0 20 -7 20 -4161 20 -3790 0 -4161 -1 -4155 -16z"/>
<path d="M14272 7340 c-12 -20 -10 -20 870 -20 845 1 885 1 923 19 40 19 31
19 -870 20 -900 1 -910 1 -923 -19z"/>
<path d="M5686 6803 c-6 -14 -5 -15 5 -6 7 7 10 15 7 18 -3 3 -9 -2 -12 -12z"/>
<path d="M5542 6740 c0 -14 2 -19 5 -12 2 6 2 18 0 25 -3 6 -5 1 -5 -13z"/>
<path d="M5721 6654 c0 -11 3 -14 6 -6 3 7 2 16 -1 19 -3 4 -6 -2 -5 -13z"/>
<path d="M12345 6033 c3 -21 39 -297 80 -613 41 -316 85 -654 97 -750 21 -161
25 -175 43 -175 16 0 20 6 18 30 -2 28 -43 349 -78 615 -9 63 -38 288 -65 500
-27 212 -52 395 -55 408 -3 14 -13 22 -25 22 -18 0 -20 -5 -15 -37z"/>
<path d="M5631 5924 c0 -11 3 -14 6 -6 3 7 2 16 -1 19 -3 4 -6 -2 -5 -13z"/>
<path d="M3730 5851 c0 -6 4 -13 10 -16 6 -3 7 1 4 9 -7 18 -14 21 -14 7z"/>
<path d="M5621 5844 c0 -11 3 -14 6 -6 3 7 2 16 -1 19 -3 4 -6 -2 -5 -13z"/>
<path d="M5732 5800 c0 -14 2 -19 5 -12 2 6 2 18 0 25 -3 6 -5 1 -5 -13z"/>
<path d="M17586 5613 c-6 -14 -5 -15 5 -6 7 7 10 15 7 18 -3 3 -9 -2 -12 -12z"/>
<path d="M3651 5524 c0 -11 3 -14 6 -6 3 7 2 16 -1 19 -3 4 -6 -2 -5 -13z"/>
<path d="M3641 5484 c0 -11 3 -14 6 -6 3 7 2 16 -1 19 -3 4 -6 -2 -5 -13z"/>
<path d="M3611 5384 c0 -11 3 -14 6 -6 3 7 2 16 -1 19 -3 4 -6 -2 -5 -13z"/>
<path d="M2132 5300 c0 -14 2 -19 5 -12 2 6 2 18 0 25 -3 6 -5 1 -5 -13z"/>
<path d="M5652 5220 c0 -19 2 -27 5 -17 2 9 2 25 0 35 -3 9 -5 1 -5 -18z"/>
<path d="M3476 4965 c-9 -26 -7 -32 5 -12 6 10 9 21 6 23 -2 3 -7 -2 -11 -11z"/>
<path d="M3441 4844 c0 -11 3 -14 6 -6 3 7 2 16 -1 19 -3 4 -6 -2 -5 -13z"/>
<path d="M14755 4760 c-3 -5 -1 -10 4 -10 6 0 11 5 11 10 0 6 -2 10 -4 10 -3
0 -8 -4 -11 -10z"/>
<path d="M2101 4694 c0 -11 3 -14 6 -6 3 7 2 16 -1 19 -3 4 -6 -2 -5 -13z"/>
<path d="M15680 4550 c0 -5 5 -10 11 -10 5 0 7 5 4 10 -3 6 -8 10 -11 10 -2 0
-4 -4 -4 -10z"/>
<path d="M5520 4400 c0 -5 5 -10 10 -10 6 0 10 5 10 10 0 6 -4 10 -10 10 -5 0
-10 -4 -10 -10z"/>
<path d="M5486 4155 c4 -8 8 -15 10 -15 2 0 4 7 4 15 0 8 -4 15 -10 15 -5 0
-7 -7 -4 -15z"/>
<path d="M3171 4044 c0 -11 3 -14 6 -6 3 7 2 16 -1 19 -3 4 -6 -2 -5 -13z"/>
<path d="M14040 4029 c0 -5 5 -7 10 -4 6 3 10 8 10 11 0 2 -4 4 -10 4 -5 0
-10 -5 -10 -11z"/>
<path d="M3092 3800 c0 -14 2 -19 5 -12 2 6 2 18 0 25 -3 6 -5 1 -5 -13z"/>
<path d="M7204 3766 c-57 -18 -100 -53 -131 -106 -25 -41 -28 -55 -31 -179 -3
-103 -1 -135 9 -142 7 -4 17 -5 21 -3 4 3 8 58 8 123 0 105 3 122 25 167 27
54 74 91 132 105 21 5 1154 9 2607 9 2561 0 2569 0 2583 20 l14 20 -2598 -1
c-2079 0 -2606 -3 -2639 -13z"/>
<path d="M2015 3579 c-2 -3 -7 -47 -11 -97 l-7 -92 490 0 490 0 28 88 c15 48
28 90 29 94 1 9 -1014 16 -1019 7z"/>
<path d="M5648 3053 c7 -3 16 -2 19 1 4 3 -2 6 -13 5 -11 0 -14 -3 -6 -6z"/>
<path d="M4440 3040 c8 -5 20 -10 25 -10 6 0 3 5 -5 10 -8 5 -19 10 -25 10 -5
0 -3 -5 5 -10z"/>
<path d="M5550 3030 c-13 -8 -13 -10 2 -10 9 0 20 5 23 10 8 13 -5 13 -25 0z"/>
<path d="M4648 2983 c7 -3 16 -2 19 1 4 3 -2 6 -13 5 -11 0 -14 -3 -6 -6z"/>
<path d="M3455 2909 c-4 -6 -5 -12 -2 -15 2 -3 7 2 10 11 7 17 1 20 -8 4z"/>
<path d="M3510 2829 c0 -5 5 -7 10 -4 6 3 10 8 10 11 0 2 -4 4 -10 4 -5 0 -10
-5 -10 -11z"/>
</g>
</svg>
